<svg xmlns="http://www.w3.org/2000/svg" width="341.036" height="67.595" viewBox="0 0 341.036 67.595">
  <g id="Group_1" data-name="Group 1" transform="translate(-15.859 -489.723)">
    <path id="Path_1" data-name="Path 1" d="M119.027,578.781h11.506l9.023-33.674H128.051l-9.024,33.674" transform="translate(-41.154 -22.093)" fill="#0e2961" fill-rule="evenodd"/>
    <path id="Path_2" data-name="Path 2" d="M217.355,578.781h11.507l9.022-33.674h-11.5l-9.025,33.674" transform="translate(-80.378 -22.093)" fill="#0e2961" fill-rule="evenodd"/>
    <path id="Path_3" data-name="Path 3" d="M315.685,578.781h11.505l9.023-33.674H324.709l-9.023,33.674" transform="translate(-119.603 -22.093)" fill="#0e2961" fill-rule="evenodd"/>
    <path id="Path_4" data-name="Path 4" d="M180.476,556.692h11.515c1.528-7.571-3.366-11.469-14.652-11.469-13.056,0-21.931,6.393-24.908,17.5-2.7,10.062,2.643,16.19,14.927,16.19,12.42,0,19.757-3.86,22.893-12.518h-11.56a8.9,8.9,0,0,1-8.715,5.8c-5.576,0-7.758-3.537-6.045-9.928,1.787-6.662,5.989-10.335,11.61-10.335,3.536,0,5.2,1.588,4.935,4.76" transform="translate(-54.207 -22.139)" fill="#0e2961" fill-rule="evenodd"/>
    <path id="Path_5" data-name="Path 5" d="M278.806,556.692h11.513c1.529-7.571-3.364-11.469-14.65-11.469-13.056,0-21.932,6.393-24.908,17.5-2.7,10.062,2.644,16.19,14.928,16.19,12.42,0,19.757-3.86,22.892-12.518h-11.56a8.9,8.9,0,0,1-8.716,5.8c-5.576,0-7.757-3.537-6.044-9.928,1.786-6.662,5.989-10.335,11.61-10.335,3.534,0,5.2,1.588,4.936,4.76" transform="translate(-93.431 -22.139)" fill="#0e2961" fill-rule="evenodd"/>
    <path id="Path_6" data-name="Path 6" d="M33.423,504.343c15.413-15.277,34.048-19.223,41.481-8.784s.924,31.41-14.489,46.686-34.049,19.223-41.481,8.785-.925-31.413,14.489-46.687" transform="translate(0 0)" fill="#fa8815" fill-rule="evenodd"/>
    <path id="Path_7" data-name="Path 7" d="M48.541,496.248a47.468,47.468,0,0,0-5.093,4.362c-13.505,13.3-19.117,31.588-12.467,40.731,6.857,9.142,23.482,5.818,37.2-7.691,7.377-7.167,12.365-15.583,14.442-23.377.623-5.714-.207-10.8-2.807-14.65-5.921-8.1-18.6-7.481-31.273.625" transform="translate(-4.916 -0.05)" fill="#9d1823" fill-rule="evenodd"/>
    <path id="Path_8" data-name="Path 8" d="M60.193,553.188c-7.214,5.42-14.67,8.1-21.942,6.982,3.049.157,5.517-3.23,7.538-7.778a76.179,76.179,0,0,0,4.268-13.029c1.433-6.4,1.544-10.979.814-11.961-1.235-1.629-4.043-1.208-7.216.618-1.517.841-3.538.28-1.151-2.611,2.414-2.921,12.017-9.941,15.47-11.035,3.791-1.1,8.115.393,6.655,4.548-1.04,3.032-14.322,37.883-4.438,34.266M71.06,499.127c1.8,1.8.7,5.727-2.358,8.816-3.088,3.062-7.1,4.154-8.846,2.386-1.852-1.769-.756-5.756,2.33-8.872C65.3,498.341,69.319,497.385,71.06,499.127Z" transform="translate(-8.932 -3.407)" fill="#fff" fill-rule="evenodd"/>
    <path id="Path_9" data-name="Path 9" d="M372.822,573.5l2.632-9.821h7.53c5.8,0,8.374,1.03,7.31,5.005-.978,3.647-3.818,4.815-9.056,4.815h-8.417m6.2-23.148h7.158c5.377,0,7.871.653,6.967,4.021s-3.792,4.208-9.358,4.208h-6.969ZM364.131,578.88h17.258c4.911,0,8.566-.375,12.07-2.806a11.924,11.924,0,0,0,4.785-6.688c1.241-4.631-.879-7.717-6.15-8.467,4.975-.934,8.109-3.552,9.174-7.529.828-3.087.153-5.285-2.065-6.782-1.828-1.215-4.815-1.4-8.884-1.4H373.153Z" transform="translate(-138.928 -22.132)" fill="#0e2961" fill-rule="evenodd"/>
    <path id="Path_10" data-name="Path 10" d="M443.454,574.422l-.112.423a9.037,9.037,0,0,1-8.975,6.968c-3.135,0-4.446-1.216-3.844-3.46.826-3.089,3.531-3.932,8.536-3.932h4.395m-2.674,10.852H447.7a37.952,37.952,0,0,1,1.075-5.237l2.52-9.4c1.666-6.221-1.41-9.4-9.223-9.4-7.528,0-12.439,2.618-13.945,7.015h6.641c.87-2.2,2.784-3.226,5.963-3.226,3.554,0,4.812,1.59,3.9,5l-.115.423h-3.649c-10.29,0-15.841,1.869-17.433,7.811-1.229,4.582,1.663,7.583,7.79,7.583a14.987,14.987,0,0,0,10.231-3.8Z" transform="translate(-162.475 -28.527)" fill="#0e2961" fill-rule="evenodd"/>
    <path id="Path_11" data-name="Path 11" d="M473.906,585.306h6.968l3.219-12.019a9.94,9.94,0,0,1,9.324-7.391c4.069,0,5.489,2.386,4.21,7.158l-3.283,12.253h6.827l3.861-14.405c1.627-6.079-1.455-9.587-8.237-9.587a14.335,14.335,0,0,0-10.98,4.676l.834-4.161h-6.875q-1.064,5.542-1.422,6.875l-4.448,16.6" transform="translate(-182.718 -28.558)" fill="#0e2961" fill-rule="evenodd"/>
    <path id="Path_12" data-name="Path 12" d="M529.49,578.88h6.783l3.4-12.673,9.136,12.673h9.309L547.82,565.456,561.786,555.4h-8.745l-13.008,9.448,5.263-19.645h-6.782L529.49,578.88" transform="translate(-204.891 -22.132)" fill="#0e2961" fill-rule="evenodd"/>
  </g>
</svg>
