<?xml version="1.0" encoding="utf-8"?>
<!-- Generator: Adobe Illustrator 16.0.0, SVG Export Plug-In . SVG Version: 6.00 Build 0)  -->
<!DOCTYPE svg PUBLIC "-//W3C//DTD SVG 1.1//EN" "http://www.w3.org/Graphics/SVG/1.1/DTD/svg11.dtd">
<svg version="1.1" id="Capa_1" xmlns="http://www.w3.org/2000/svg" xmlns:xlink="http://www.w3.org/1999/xlink" x="0px" y="0px"
	 width="107px" height="103.555px" viewBox="72.5 128.222 107 103.555" enable-background="new 72.5 128.222 107 103.555"
	 xml:space="preserve">
<path fill="#85D85B" d="M176.563,132.176l-67.72,66.031l-22.952-26.23c-0.624-0.721-1.713-0.8-2.434-0.177s-0.8,1.713-0.177,2.434
	c0.004,0.004,0.008,0.009,0.012,0.014l24.16,27.611c0.311,0.353,0.752,0.563,1.222,0.582h0.069c0.451,0.001,0.885-0.175,1.208-0.49
	l69.028-67.303c0.683-0.667,0.695-1.761,0.028-2.443C178.34,131.522,177.246,131.509,176.563,132.176L176.563,132.176z"/>
<path fill="#85D85B" d="M124.275,231.777c28.61-0.018,51.79-23.227,51.771-51.837c-0.004-6.426-1.203-12.795-3.537-18.782
	c-0.348-0.888-1.35-1.326-2.237-0.979c-0.888,0.347-1.325,1.349-0.978,2.236c9.702,24.842-2.569,52.845-27.411,62.548
	c-24.841,9.703-52.845-2.569-62.548-27.41c-9.703-24.842,2.569-52.846,27.411-62.548c12.133-4.739,25.665-4.375,37.525,1.007
	c0.876,0.375,1.891-0.031,2.266-0.907c0.363-0.849-0.005-1.833-0.837-2.233c-26.031-11.828-56.722-0.313-68.549,25.719
	c-11.828,26.031-0.313,56.723,25.719,68.55C109.592,230.195,116.89,231.776,124.275,231.777z"/>
</svg>
