<?xml version="1.0" encoding="utf-8"?>
<!-- Generator: Adobe Illustrator 16.0.0, SVG Export Plug-In . SVG Version: 6.00 Build 0)  -->
<!DOCTYPE svg PUBLIC "-//W3C//DTD SVG 1.1//EN" "http://www.w3.org/Graphics/SVG/1.1/DTD/svg11.dtd">
<svg version="1.1" id="Capa_1" xmlns="http://www.w3.org/2000/svg" xmlns:xlink="http://www.w3.org/1999/xlink" x="0px" y="0px"
	 width="252px" height="243.887px" viewBox="0 58.056 252 243.887" enable-background="new 0 58.056 252 243.887"
	 xml:space="preserve">
<path fill="#85D85B" d="M245.085,67.369L85.594,222.881l-54.055-61.777c-1.468-1.698-4.035-1.884-5.733-0.417
	c-1.698,1.468-1.884,4.035-0.416,5.733c0.009,0.011,0.018,0.021,0.028,0.032l56.9,65.028c0.732,0.83,1.772,1.324,2.877,1.37h0.163
	c1.063,0.003,2.084-0.412,2.845-1.153L250.775,73.189c1.606-1.571,1.637-4.148,0.064-5.755
	C249.269,65.827,246.692,65.798,245.085,67.369L245.085,67.369z"/>
<path fill="#85D85B" d="M121.937,301.943c67.381-0.042,121.971-54.701,121.928-122.083c-0.01-15.134-2.834-30.135-8.331-44.235
	c-0.817-2.091-3.177-3.123-5.268-2.305s-3.122,3.176-2.304,5.267c22.852,58.505-6.052,124.458-64.557,147.31
	c-58.505,22.853-124.458-6.052-147.31-64.556C-6.756,162.836,22.147,96.883,80.652,74.031c28.574-11.16,60.444-10.305,88.377,2.373
	c2.064,0.884,4.453-0.073,5.336-2.137c0.855-1.998-0.012-4.316-1.971-5.26C111.087,41.151,38.806,68.27,10.951,129.578
	c-27.855,61.308-0.737,133.59,60.572,161.444C87.356,298.217,104.545,301.941,121.937,301.943z"/>
</svg>
